<svg width="261" height="169" viewBox="0 0 261 169" fill="none" xmlns="http://www.w3.org/2000/svg">
<path d="M25.1045 9.67969C31.7034 3.22186 40.7719 -0.0688906 49.9766 0.654297L114.975 5.76172V5.76074L190.649 12.4717L190.658 12.4727H190.667L237.062 14.9785C239.217 15.0949 241.347 15.4926 243.399 16.1611C253.598 19.4834 260.5 28.991 260.5 39.7168V133.211C260.5 152.7 244.665 168.5 225.175 168.5H189.354L17.6846 166.919C6.52252 166.816 -1.55224 156.227 1.29883 145.438L14.0361 110.861C19.2261 96.772 21.0221 81.6573 19.2773 66.7441L15.71 36.251C14.5595 26.4171 18.0283 16.6047 25.1045 9.67969Z" fill="#C2C2C2" fill-opacity="0.63" stroke="#3A3A3A"/>
</svg>
