<svg width="22" height="20" viewBox="0 0 22 20" fill="none" xmlns="http://www.w3.org/2000/svg">
<path fill-rule="evenodd" clip-rule="evenodd" d="M16.9459 0.5C17.2726 0.5 17.5626 0.701273 17.6659 0.999672L18.4947 3.39338L20.981 4.19129C21.2909 4.29075 21.5 4.57 21.5 4.88454C21.5 5.19908 21.2909 5.47833 20.981 5.5778L18.4947 6.3757L17.6659 8.76941C17.5626 9.06781 17.2726 9.26909 16.9459 9.26909C16.6191 9.26909 16.3291 9.06781 16.2258 8.76941L15.397 6.3757L12.9107 5.5778C12.6008 5.47833 12.3917 5.19908 12.3917 4.88454C12.3917 4.57 12.6008 4.29075 12.9107 4.19129L15.397 3.39338L16.2258 0.999672C16.3291 0.701273 16.6191 0.5 16.9459 0.5Z" fill="#DBB0F9"/>
<path fill-rule="evenodd" clip-rule="evenodd" d="M16.9459 10.9742C17.6445 10.9742 18.2109 11.5195 18.2109 12.1921V18.2818C18.2109 18.9544 17.6445 19.4997 16.9459 19.4997C16.2472 19.4997 15.6808 18.9544 15.6808 18.2818V12.1921C15.6808 11.5195 16.2472 10.9742 16.9459 10.9742Z" fill="#DBB0F9"/>
<path fill-rule="evenodd" clip-rule="evenodd" d="M4.48375 4.55308C4.63781 4.02866 5.13497 3.66661 5.70104 3.66661H7.95C8.51607 3.66661 9.01324 4.02867 9.16729 4.55309L13.1028 17.9503C13.293 18.5976 12.9021 19.2707 12.2298 19.4537C11.5575 19.6368 10.8584 19.2605 10.6683 18.6132L6.99312 6.10247H6.65792L2.98266 18.6132C2.79251 19.2605 2.09337 19.6368 1.42108 19.4537C0.74879 19.2707 0.357931 18.5976 0.548074 17.9503L4.48375 4.55308Z" fill="#DBB0F9"/>
<path fill-rule="evenodd" clip-rule="evenodd" d="M1.76536 14.628C1.76536 13.9553 2.33174 13.41 3.03041 13.41H10.6206C11.3193 13.41 11.8857 13.9553 11.8857 14.628C11.8857 15.3006 11.3193 15.8459 10.6206 15.8459H3.03041C2.33174 15.8459 1.76536 15.3006 1.76536 14.628Z" fill="#DBB0F9"/>
</svg>
