<svg width="15" height="14" viewBox="0 0 15 14" fill="none" xmlns="http://www.w3.org/2000/svg">
<g clip-path="url(#clip0_808_1225)">
<path d="M7.50007 13.036C11.3629 13.036 13.5358 10.8631 13.5358 7.00025C13.5358 3.1374 11.3629 0.964539 7.50007 0.964539C3.63721 0.964539 1.46436 3.1374 1.46436 7.00025C1.46436 10.8631 3.63721 13.036 7.50007 13.036Z" fill="#DBB0F9"/>
<path d="M7.5 5.93877V0.964294C11.3629 0.964294 13.5357 3.13715 13.5357 7.00001C13.5357 8.32517 13.28 9.45146 12.788 10.3594L8.39577 7.56905C7.83792 7.21467 7.5 6.59966 7.5 5.93877Z" fill="#31064F"/>
<path d="M7.5 5.93877V0.964294C11.3629 0.964294 13.5357 3.13715 13.5357 7.00001C13.5357 8.32517 13.28 9.45146 12.788 10.3594L8.39577 7.56905C7.83792 7.21467 7.5 6.59966 7.5 5.93877Z" stroke="#E9D6FA" stroke-width="1.7143" stroke-linecap="round" stroke-linejoin="round"/>
<path d="M7.50007 13.036C11.3629 13.036 13.5358 10.8631 13.5358 7.00025C13.5358 3.1374 11.3629 0.964539 7.50007 0.964539C3.63721 0.964539 1.46436 3.1374 1.46436 7.00025C1.46436 10.8631 3.63721 13.036 7.50007 13.036Z" stroke="#E9D6FA" stroke-width="1.7143" stroke-linecap="round" stroke-linejoin="round"/>
</g>
<defs>
<clipPath id="clip0_808_1225">
<rect width="14" height="14" fill="white" transform="translate(0.5)"/>
</clipPath>
</defs>
</svg>
