<svg width="18" height="18" viewBox="0 0 18 18" fill="none" xmlns="http://www.w3.org/2000/svg">
<path d="M15 6.49769L9 0.999999L9.01589 6.59723C9.00978 4.47824 11.5206 3.35771 13.0937 4.77737L15 6.49769Z" fill="#3A3A3A"/>
<path d="M9 0.999999L5 4.66513L3 6.49769L4.8889 4.77941C6.47095 3.34026 9.00977 4.45854 9.01589 6.59723L9 0.999999Z" fill="#3A3A3A"/>
<path d="M9 17L9.01589 6.59723M9 0.999999L5 4.66513L3 6.49769M9 0.999999L15 6.49769M9 0.999999L9.01589 6.59723M1 8.33025L3 6.49769M17 8.33025L15 6.49769M3 6.49769L4.8889 4.77941C6.47095 3.34026 9.00977 4.45854 9.01589 6.59723V6.59723M15 6.49769L13.0937 4.77737C11.5206 3.35771 9.00978 4.47824 9.01589 6.59723V6.59723" stroke="#3A3A3A" stroke-width="2" stroke-linecap="round" stroke-linejoin="round"/>
</svg>
