<svg width="25" height="24" viewBox="0 0 25 24" fill="none" xmlns="http://www.w3.org/2000/svg">
<path d="M17.5 9H20.5L21 19L17.5 16.5H9V14L17 13L17.5 9Z" fill="white"/>
<path d="M16.5 8H20.5C21.0523 8 21.5 8.44772 21.5 9V20L18.167 17.231C17.9875 17.0818 17.7608 17 17.5273 17H9.5C8.94771 17 8.5 16.5523 8.5 16V13M16.5 8V5C16.5 4.44772 16.0523 4 15.5 4H4.5C3.94772 4 3.5 4.44772 3.5 5V16.0003L6.83301 13.2308C7.01255 13.0817 7.23924 13 7.47266 13H8.5M16.5 8V12C16.5 12.5523 16.0523 13 15.5 13H8.5" stroke="#31064F" stroke-width="2" stroke-linecap="round" stroke-linejoin="round"/>
</svg>
