<svg width="13" height="14" viewBox="0 0 13 14" fill="none" xmlns="http://www.w3.org/2000/svg">
<path d="M6.51434 13.9885H6.48575C2.91062 13.9885 0.00195312 11.079 0.00195312 7.50281V7.47422C0.00195312 3.89804 2.91062 0.98851 6.48575 0.98851H6.51434C10.0895 0.98851 12.9981 3.89804 12.9981 7.47422V7.50281C12.9981 11.079 10.0895 13.9885 6.51434 13.9885ZM6.48575 1.42855C3.15301 1.42855 0.44186 4.1405 0.44186 7.47422V7.50281C0.44186 10.8365 3.15301 13.5485 6.48575 13.5485H6.51434C9.84708 13.5485 12.5582 10.8365 12.5582 7.50281V7.47422C12.5582 4.1405 9.84708 1.42855 6.51434 1.42855H6.48575Z" fill="#3A3A3A"/>
<path d="M7.37464 6.0309V7.39897H9.06653L8.79862 9.24185H7.37464V13.4878C7.08914 13.5274 6.79705 13.5481 6.50055 13.5481C6.1583 13.5481 5.82221 13.5208 5.49492 13.468V9.24185H3.93457V7.39897H5.49492V5.72508C5.49492 4.68659 6.33646 3.84436 7.37508 3.84436V3.84524C7.37816 3.84524 7.3808 3.84436 7.38388 3.84436H9.06697V5.43817H7.9672C7.64035 5.43817 7.37508 5.70351 7.37508 6.03046L7.37464 6.0309Z" fill="#3A3A3A"/>
</svg>
