<svg width="24" height="24" viewBox="0 0 24 24" fill="none" xmlns="http://www.w3.org/2000/svg">
<path d="M12.0003 23.1433C19.1318 23.1433 23.1433 19.1318 23.1433 12.0003C23.1433 4.86888 19.1318 0.857422 12.0003 0.857422C4.86888 0.857422 0.857422 4.86888 0.857422 12.0003C0.857422 19.1318 4.86888 23.1433 12.0003 23.1433Z" fill="#E9D6FA"/>
<path d="M18.3504 21.6808C16.6492 22.6425 14.5194 23.1431 12.0003 23.1431C9.48103 23.1431 7.35115 22.6425 5.6499 21.6806V20.6308C6.00382 19.2979 6.76932 18.1068 7.84209 17.23C9.01556 16.2708 10.4846 15.7468 12.0002 15.7468C13.5157 15.7468 14.9847 16.2708 16.1582 17.23C17.2309 18.1068 17.9965 19.2979 18.3504 20.6308V21.6808Z" fill="white"/>
<path d="M12.0003 23.1433C19.1318 23.1433 23.1433 19.1318 23.1433 12.0003C23.1433 4.86888 19.1318 0.857422 12.0003 0.857422C4.86888 0.857422 0.857422 4.86888 0.857422 12.0003C0.857422 19.1318 4.86888 23.1433 12.0003 23.1433Z" stroke="#3A3A3A" stroke-width="1.7143" stroke-linecap="round" stroke-linejoin="round"/>
<path d="M11.9993 12.9954C14.3996 12.9954 15.7498 11.6452 15.7498 9.24488C15.7498 6.84456 14.3996 5.49438 11.9993 5.49438C9.59896 5.49438 8.24878 6.84456 8.24878 9.24488C8.24878 11.6452 9.59896 12.9954 11.9993 12.9954Z" fill="white"/>
<path d="M11.9993 12.9954C14.3996 12.9954 15.7498 11.6452 15.7498 9.24488C15.7498 6.84456 14.3996 5.49438 11.9993 5.49438C9.59896 5.49438 8.24878 6.84456 8.24878 9.24488C8.24878 11.6452 9.59896 12.9954 11.9993 12.9954Z" stroke="#3A3A3A" stroke-width="1.7143" stroke-linecap="round" stroke-linejoin="round"/>
<path d="M5.4375 21.5359L5.64968 20.6308C6.00359 19.2979 6.7691 18.1068 7.84187 17.23C9.01534 16.2708 10.4843 15.7468 11.9999 15.7468C13.5155 15.7468 14.9845 16.2708 16.158 17.23C17.2307 18.1068 17.9963 19.2979 18.3501 20.6308L18.5625 21.5627" stroke="#3A3A3A" stroke-width="1.7143" stroke-linecap="round" stroke-linejoin="round"/>
</svg>
