<svg width="22" height="22" viewBox="0 0 22 22" fill="none" xmlns="http://www.w3.org/2000/svg">
<path d="M11 1.5C14.108 1.5 16.4659 2.37214 18.0469 3.95312C19.6279 5.53411 20.5 7.89203 20.5 11C20.5 14.108 19.6279 16.4659 18.0469 18.0469C16.4659 19.6279 14.108 20.5 11 20.5C7.89203 20.5 5.53411 19.6279 3.95312 18.0469C2.37214 16.4659 1.5 14.108 1.5 11C1.5 7.89203 2.37214 5.53411 3.95312 3.95312C5.53411 2.37214 7.89203 1.5 11 1.5Z" fill="#DBB0F9" stroke="#31064F"/>
<path d="M11 14.8622C12.2447 14.8623 13.4513 15.2923 14.415 16.08C15.2802 16.7871 15.9009 17.7437 16.1982 18.8143V19.3895C14.8046 20.1122 13.0685 20.4999 11 20.4999C8.93123 20.4999 7.19456 20.1125 5.80078 19.3895V18.8153C6.09809 17.7442 6.71955 16.7873 7.58496 16.08C8.54869 15.2924 9.75538 14.8622 11 14.8622Z" fill="white" stroke="#31064F"/>
<path d="M11 21C17.4 21 21 17.4 21 11C21 4.6 17.4 1 11 1C4.6 1 1 4.6 1 11C1 17.4 4.6 21 11 21Z" stroke="#31064F" stroke-linecap="round" stroke-linejoin="round"/>
<path d="M10.999 5.66132C11.9838 5.66139 12.6826 5.93677 13.1357 6.38983C13.5889 6.843 13.8643 7.5425 13.8643 8.52753C13.8642 9.51234 13.5889 10.2111 13.1357 10.6642C12.6826 11.1174 11.9838 11.3927 10.999 11.3928C10.014 11.3928 9.3145 11.1174 8.86133 10.6642C8.40827 10.2111 8.13289 9.51228 8.13281 8.52753C8.13281 7.5425 8.40816 6.843 8.86133 6.38983C9.3145 5.93666 10.014 5.66132 10.999 5.66132Z" fill="white" stroke="#31064F"/>
<path d="M10.9986 11.8929C13.1527 11.8929 14.3644 10.6812 14.3644 8.52712C14.3644 6.37301 13.1527 5.16132 10.9986 5.16132C8.8445 5.16132 7.63281 6.37301 7.63281 8.52712C7.63281 10.6812 8.8445 11.8929 10.9986 11.8929Z" stroke="#31064F" stroke-linecap="round" stroke-linejoin="round"/>
<path d="M5.11035 19.5574L5.30077 18.7451C5.61838 17.549 6.30537 16.48 7.26811 15.6931C8.32121 14.8323 9.63954 14.3621 10.9997 14.3621C12.3598 14.3621 13.6781 14.8323 14.7312 15.6931C15.6939 16.48 16.381 17.549 16.6985 18.7451L16.8892 19.5814" stroke="#31064F" stroke-linecap="round" stroke-linejoin="round"/>
</svg>
