<svg width="27" height="26" viewBox="0 0 27 26" fill="none" xmlns="http://www.w3.org/2000/svg">
<path d="M13.5005 5.02434C15.3632 4.99568 17.1646 5.68964 18.5267 6.96059L22.1955 3.37309C19.8417 1.16752 16.7259 -0.041896 13.5005 -0.00190772C11.0905 -0.00246457 8.72797 0.667388 6.67696 1.93274C4.62596 3.19809 2.96738 5.00905 1.88672 7.16309L6.09047 10.4268C6.60448 8.86391 7.59614 7.50176 8.92559 6.53248C10.255 5.5632 11.8552 5.03569 13.5005 5.02434Z" fill="#E43E2B"/>
<path d="M25.9801 13.2872C25.9954 12.3935 25.9031 11.5013 25.7051 10.6297H13.5001V15.4547H20.6651C20.5292 16.3006 20.2236 17.1103 19.7667 17.8351C19.3098 18.5599 18.711 19.1848 18.0064 19.6722L22.1089 22.8497C23.3874 21.6153 24.3929 20.1265 25.0604 18.4793C25.7278 16.8322 26.0424 15.0634 25.9839 13.2872H25.9801Z" fill="#3B7DED"/>
<path d="M6.10543 15.5687C5.8212 14.7411 5.67467 13.8725 5.67168 12.9975C5.67686 12.1238 5.81814 11.2564 6.09043 10.4262L1.88668 7.16248C0.97492 8.97265 0.5 10.9713 0.5 12.9981C0.5 15.0249 0.97492 17.0236 1.88668 18.8337L6.10543 15.5687Z" fill="#F0B501"/>
<path d="M13.5004 25.9979C16.667 26.0875 19.7476 24.9607 22.1091 22.8492L18.0066 19.6717C16.6764 20.5634 15.1011 21.0179 13.5004 20.9717C11.8565 20.9619 10.2575 20.4347 8.93013 19.465C7.60275 18.4953 6.61443 17.1322 6.10536 15.5692L1.90161 18.8342C2.97936 20.9872 4.63522 22.7978 6.68375 24.063C8.73229 25.3283 11.0926 25.9982 13.5004 25.9979Z" fill="#2BA24C"/>
</svg>
