<svg width="20" height="21" viewBox="0 0 20 21" fill="none" xmlns="http://www.w3.org/2000/svg">
<path d="M19.7747 10.6468C20.0751 10.3444 20.0751 9.85418 19.7747 9.5518L13.4072 3.14248C12.7556 2.48658 12.2122 1.93962 11.7229 1.56381C11.2064 1.16714 10.6606 0.888916 10 0.888916C9.33935 0.888916 8.79363 1.16714 8.27712 1.56381C7.78777 1.93963 7.24442 2.48657 6.59283 3.14249L0.225303 9.5518C-0.0751008 9.85418 -0.0751008 10.3444 0.225303 10.6468C0.525706 10.9492 1.01276 10.9492 1.31316 10.6468L1.75384 10.2032V13.5924C1.75384 16.9193 4.02882 19.8085 7.24662 20.5682C9.05762 20.9958 10.9424 20.9958 12.7534 20.5682C15.9712 19.8085 18.2461 16.9193 18.2461 13.5924V10.2032L18.6868 10.6468C18.9872 10.9492 19.4743 10.9492 19.7747 10.6468Z" fill="#6E6E6E"/>
</svg>
