<svg width="13" height="14" viewBox="0 0 13 14" fill="none" xmlns="http://www.w3.org/2000/svg">
<path d="M6.5143 13.9885H6.4857C2.90952 13.9885 0 11.079 0 7.50281V7.47421C0 3.89803 2.90952 0.98851 6.4857 0.98851H6.5143C10.0905 0.98851 13 3.89803 13 7.47421V7.50281C13 11.079 10.0905 13.9885 6.5143 13.9885ZM6.4857 1.42855C3.15198 1.42855 0.440037 4.14049 0.440037 7.47421V7.50281C0.440037 10.8365 3.15198 13.5485 6.4857 13.5485H6.5143C9.84802 13.5485 12.56 10.8365 12.56 7.50281V7.47421C12.56 4.14049 9.84802 1.42855 6.5143 1.42855H6.4857Z" fill="#3A3A3A"/>
<path d="M8.44294 3.76381H4.55654C3.48285 3.76381 2.60938 4.63728 2.60938 5.71097V9.26646C2.60938 10.3401 3.48285 11.2136 4.55654 11.2136H8.44294C9.51663 11.2136 10.3901 10.3401 10.3901 9.26646V5.71097C10.3901 4.63728 9.51663 3.76381 8.44294 3.76381ZM3.29627 5.71097C3.29627 5.01615 3.86172 4.4507 4.55654 4.4507H8.44294C9.13776 4.4507 9.70321 5.01615 9.70321 5.71097V9.26646C9.70321 9.96128 9.13776 10.5267 8.44294 10.5267H4.55654C3.86172 10.5267 3.29627 9.96128 3.29627 9.26646V5.71097Z" fill="#3A3A3A"/>
<path d="M6.49967 9.29948C7.49811 9.29948 8.31086 8.48718 8.31086 7.4883C8.31086 6.48941 7.49855 5.67711 6.49967 5.67711C5.50079 5.67711 4.68848 6.48941 4.68848 7.4883C4.68848 8.48718 5.50079 9.29948 6.49967 9.29948ZM6.49967 6.36444C7.11968 6.36444 7.62396 6.86872 7.62396 7.48874C7.62396 8.10875 7.11968 8.61303 6.49967 8.61303C5.87966 8.61303 5.37537 8.10875 5.37537 7.48874C5.37537 6.86872 5.87966 6.36444 6.49967 6.36444Z" fill="#3A3A3A"/>
<path d="M8.47823 5.96973C8.7471 5.96973 8.96624 5.75104 8.96624 5.48173C8.96624 5.21243 8.74754 4.99373 8.47823 4.99373C8.20893 4.99373 7.99023 5.21243 7.99023 5.48173C7.99023 5.75104 8.20893 5.96973 8.47823 5.96973Z" fill="#3A3A3A"/>
</svg>
