<svg width="24" height="24" viewBox="0 0 24 24" fill="none" xmlns="http://www.w3.org/2000/svg">
<path d="M5.14292 20.5714V9.70281C5.14292 8.51933 4.18353 7.55994 3.00005 7.55994C1.81657 7.55994 0.857178 8.51933 0.857178 9.70281V20.5714C0.857178 21.755 1.81657 22.7143 3.00005 22.7143C4.18353 22.7143 5.14292 21.755 5.14292 20.5714Z" fill="#E9D6FA"/>
<path fill-rule="evenodd" clip-rule="evenodd" d="M6.47166 10.0069L11.4706 2.28179C11.9094 1.65732 12.6248 1.28564 13.3879 1.28564C14.8111 1.28564 15.9057 2.54397 15.7086 3.95345L15.2995 6.87797H18.4494C20.0138 6.87797 23.1428 8.44245 23.1428 11.5714C23.1428 14.7004 20.4253 21.8572 17.0972 21.8572C13.1987 21.8572 9.26915 20.6917 7.16495 20.0676C6.90478 19.9905 6.67251 19.9216 6.47166 19.8642H5.14282V10.0069H6.47166Z" fill="white"/>
<path d="M6.47166 10.0069L11.4706 2.28179C11.9094 1.65732 12.6248 1.28564 13.3879 1.28564C14.8111 1.28564 15.9057 2.54397 15.7086 3.95345L15.2995 6.87797H18.4494C20.0138 6.87797 23.1428 8.44245 23.1428 11.5714C23.1428 14.7004 20.4253 21.8572 17.0972 21.8572C13.1987 21.8572 9.26915 20.6916 7.16495 20.0676C6.90478 19.9905 6.67251 19.9216 6.47166 19.8642H5.14282V10.0069H6.47166Z" stroke="#3A3A3A" stroke-width="1.7143" stroke-linecap="round" stroke-linejoin="round"/>
<path d="M5.14292 20.5714V9.70281C5.14292 8.51933 4.18353 7.55994 3.00005 7.55994C1.81657 7.55994 0.857178 8.51933 0.857178 9.70281V20.5714C0.857178 21.755 1.81657 22.7143 3.00005 22.7143C4.18353 22.7143 5.14292 21.755 5.14292 20.5714Z" stroke="#3A3A3A" stroke-width="1.7143" stroke-linecap="round" stroke-linejoin="round"/>
</svg>
