<svg width="13" height="14" viewBox="0 0 13 14" fill="none" xmlns="http://www.w3.org/2000/svg">
<path d="M6.5143 13.0115H6.4857C2.90953 13.0115 0 10.1011 0 6.52388V6.49527C0 2.91804 2.90953 0.00765991 6.4857 0.00765991H6.5143C10.0905 0.00765991 13 2.91804 13 6.49527V6.52388C13 10.1011 10.0905 13.0115 6.5143 13.0115ZM6.4857 0.447826C3.15199 0.447826 0.440036 3.16057 0.440036 6.49527V6.52388C0.440036 9.85857 3.15199 12.5713 6.4857 12.5713H6.5143C9.84801 12.5713 12.56 9.85857 12.56 6.52388V6.49527C12.56 3.16057 9.84801 0.447826 6.5143 0.447826H6.4857Z" fill="#3A3A3A"/>
<path d="M3.21551 4.4036C3.05006 4.24998 2.96777 4.05983 2.96777 3.83359C2.96777 3.60734 3.0505 3.40882 3.21551 3.25476C3.38096 3.10115 3.59394 3.02412 3.85488 3.02412C4.11582 3.02412 4.32044 3.10115 4.48546 3.25476C4.65091 3.40838 4.73319 3.60162 4.73319 3.83359C4.73319 4.06555 4.65047 4.24998 4.48546 4.4036C4.32 4.55722 4.1101 4.63425 3.85488 4.63425C3.59966 4.63425 3.38096 4.55722 3.21551 4.4036ZM4.59415 5.28481V9.99459H3.10638V5.28481H4.59415Z" fill="#3A3A3A"/>
<path d="M9.54657 5.75006C9.87088 6.10219 10.0328 6.58551 10.0328 7.20086V9.91139H8.61986V7.39188C8.61986 7.08157 8.53934 6.84036 8.37873 6.66869C8.21811 6.49703 8.00162 6.41075 7.73055 6.41075C7.45949 6.41075 7.24298 6.49659 7.08237 6.66869C6.92176 6.84036 6.84123 7.08157 6.84123 7.39188V9.91139H5.41992V5.27161H6.84123V5.88696C6.98512 5.68184 7.17919 5.51986 7.42297 5.40057C7.66675 5.28129 7.94089 5.22186 8.24583 5.22186C8.78884 5.22186 9.22271 5.39793 9.54657 5.75006Z" fill="#3A3A3A"/>
</svg>
