<svg width="20" height="22" viewBox="0 0 20 22" fill="none" xmlns="http://www.w3.org/2000/svg">
<path fill-rule="evenodd" clip-rule="evenodd" d="M10.0001 20.9512C10.7765 20.9512 14.4737 16.3082 15.3854 14.8291C16.7868 12.5556 17.652 11.2106 17.652 8.70067C17.652 4.47463 14.2261 1.04874 10.0001 1.04874C5.77403 1.04874 2.34814 4.47463 2.34814 8.70067C2.34814 11.2236 3.14985 12.5597 4.54658 14.8291C5.52007 16.4109 9.22368 20.9512 10.0001 20.9512ZM10.0001 12.5266C12.1131 12.5266 13.8261 10.8137 13.8261 8.70068C13.8261 6.58765 12.1131 4.87471 10.0001 4.87471C7.88706 4.87471 6.17411 6.58765 6.17411 8.70068C6.17411 10.8137 7.88706 12.5266 10.0001 12.5266Z" fill="#6E6E6E"/>
</svg>
