<svg width="32" height="35" viewBox="0 0 32 35" fill="none" xmlns="http://www.w3.org/2000/svg">
<path d="M32 32.3552C32 33.7236 31.2864 34.8307 30.408 34.8307H17.592C17.1698 34.8307 16.7648 34.5699 16.4663 34.1057C16.1677 33.6414 16 33.0118 16 32.3552C16 31.6987 16.1677 31.069 16.4663 30.6048C16.7648 30.1405 17.1698 29.8797 17.592 29.8797H30.408C31.288 29.8797 32 30.9868 32 32.3552Z" fill="#6C0FAD"/>
<path d="M32 17.4153C32 18.7837 31.2864 19.8909 30.408 19.8909H1.592C1.16978 19.8909 0.764844 19.63 0.466286 19.1658C0.167728 18.7015 0 18.0719 0 17.4153C0 16.7588 0.167728 16.1291 0.466286 15.6649C0.764844 15.2006 1.16978 14.9398 1.592 14.9398H30.408C31.288 14.9398 32 16.0495 32 17.4153Z" fill="#6C0FAD"/>
<path d="M30.4081 4.95098C30.8303 4.95098 31.2353 4.69017 31.5338 4.22592C31.8324 3.76167 32.0001 3.13201 32.0001 2.47547C32.0001 1.81892 31.8324 1.18926 31.5338 0.725015C31.2353 0.260766 30.8303 -4.57568e-05 30.4081 -4.57764e-05H11.1921C10.983 -4.57861e-05 10.776 0.0639853 10.5829 0.188391C10.3897 0.312798 10.2142 0.495142 10.0664 0.725015C9.91855 0.954888 9.80129 1.22779 9.72128 1.52813C9.64128 1.82847 9.6001 2.15038 9.6001 2.47547C9.6001 2.80056 9.64128 3.12246 9.72128 3.42281C9.80129 3.72315 9.91855 3.99605 10.0664 4.22592C10.2142 4.45579 10.3897 4.63814 10.5829 4.76254C10.776 4.88695 10.983 4.95098 11.1921 4.95098H30.4081Z" fill="#6C0FAD"/>
</svg>
