<svg width="22" height="20" viewBox="0 0 22 20" fill="none" xmlns="http://www.w3.org/2000/svg">
<ellipse cx="10.9999" cy="5.73289" rx="5.15278" ry="4.37986" stroke="#6E6E6E" stroke-width="1.5" stroke-linecap="round" stroke-linejoin="round"/>
<path fill-rule="evenodd" clip-rule="evenodd" d="M2.83132 15.8774C2.82993 15.5695 2.91094 15.2654 3.06823 14.988C3.56179 14.149 4.95363 13.7043 6.10856 13.5029C6.9415 13.3518 7.78594 13.2509 8.6356 13.2009C10.2087 13.0834 11.7908 13.0834 13.3639 13.2009C14.2135 13.2515 15.0579 13.3524 15.8909 13.5029C17.0459 13.7043 18.4377 14.107 18.9313 14.988C19.2476 15.5534 19.2476 16.2098 18.9313 16.7752C18.4377 17.6562 17.0459 18.059 15.8909 18.252C15.059 18.4093 14.2142 18.5131 13.3639 18.5624C12.0836 18.6547 10.7972 18.6715 9.51414 18.6128C9.218 18.6128 8.93173 18.6128 8.6356 18.5624C7.78845 18.5137 6.94694 18.4099 6.11843 18.252C4.95363 18.059 3.57166 17.6562 3.06823 16.7752C2.91175 16.4946 2.83082 16.1879 2.83132 15.8774Z" stroke="#6E6E6E" stroke-width="1.5" stroke-linecap="round" stroke-linejoin="round"/>
</svg>
