<svg width="24" height="24" viewBox="0 0 24 24" fill="none" xmlns="http://www.w3.org/2000/svg">
<path d="M9.21948 21.4617C9.63379 22.5506 10.5918 23.1433 11.9996 23.1433C13.4075 23.1433 14.3655 22.5506 14.7798 21.4617" stroke="#3A3A3A" stroke-width="1.7143" stroke-linecap="round" stroke-linejoin="round"/>
<path d="M18.941 7.96904C18.941 3.41744 16.4423 0.857178 12.0001 0.857178C7.55789 0.857178 5.05915 3.41744 5.05915 7.96904C5.05915 12.3114 2.57153 10.8614 2.57153 14.0806C2.57153 17.4438 9.6589 17.8699 12.0001 17.8699C14.3413 17.8699 21.4288 17.444 21.4288 14.0806C21.4288 10.8613 18.941 12.3115 18.941 7.96904Z" fill="white"/>
<path d="M18.941 7.96904C18.941 3.41744 16.4423 0.857178 12.0001 0.857178C7.55789 0.857178 5.05915 3.41744 5.05915 7.96904C5.05915 12.3114 2.57153 10.8614 2.57153 14.0806C2.57153 17.4438 9.6589 17.8699 12.0001 17.8699C14.3413 17.8699 21.4288 17.444 21.4288 14.0806C21.4288 10.8613 18.941 12.3115 18.941 7.96904Z" stroke="#3A3A3A" stroke-width="1.7143" stroke-linecap="round" stroke-linejoin="round"/>
</svg>
