<svg width="26" height="25" viewBox="0 0 26 25" fill="none" xmlns="http://www.w3.org/2000/svg">
<path d="M6.65295 23.6944C6.65295 23.6944 6.65295 23.6951 7.94276 23.6951V25H6.65295V23.6944Z" fill="#3A3A3A"/>
<path d="M21.1944 16.174L14.8461 22.5963C13.5729 23.8842 11.7661 24.4539 10.4422 24.7219C9.75554 24.861 9.14075 24.93 8.69689 24.9646C8.47407 24.9819 8.292 24.9908 8.16272 24.9953C8.09802 24.9975 8.04636 24.9987 8.00925 24.9993L7.9646 24.9999L7.95076 25L7.94602 25L7.9442 25C7.9442 25 7.94276 25 7.94276 23.6951L6.65295 23.6944L6.65296 23.6918L6.65297 23.687L6.65305 23.673L6.65361 23.6278C6.65422 23.5902 6.65539 23.538 6.65762 23.4725C6.66208 23.3416 6.67081 23.1574 6.68796 22.9319C6.7221 22.4827 6.7903 21.8605 6.92763 21.1657C7.1924 19.8261 7.75511 17.9976 9.02788 16.71L15.376 10.2878L21.1944 16.174Z" fill="#3A3A3A"/>
<path d="M23.0185 14.3286L25.9955 11.3168L25.9999 10.7827C26.0044 10.2344 25.8172 9.55082 25.574 8.95914C25.3203 8.34185 24.9261 7.62951 24.374 7.07098C23.8219 6.51246 23.1178 6.11367 22.5076 5.85698C21.9228 5.61094 21.2471 5.42155 20.7052 5.42613L20.1772 5.43059L17.2002 8.4424L23.0185 14.3286Z" fill="#3A3A3A"/>
<path fill-rule="evenodd" clip-rule="evenodd" d="M4.04718 4.09465L5.39624 0H6.61986L7.96892 4.09465L12.0161 5.45953V6.6975L7.96892 8.06238L6.61986 12.157H5.39624L4.04718 8.06238L0 6.6975V5.45953L4.04718 4.09465Z" fill="#3A3A3A"/>
</svg>
