<svg width="20" height="21" viewBox="0 0 20 21" fill="none" xmlns="http://www.w3.org/2000/svg">
<path d="M2.74702 5.25029C2.93487 4.44945 3.56017 3.82415 4.36101 3.6363V3.6363C5.05504 3.47351 5.77732 3.47351 6.47135 3.6363V3.6363C7.27219 3.82415 7.89749 4.44946 8.08534 5.25029V5.25029C8.24813 5.94432 8.24813 6.6666 8.08534 7.36063V7.36063C7.89749 8.16147 7.27219 8.78677 6.47135 8.97462V8.97462C5.77732 9.13742 5.05504 9.13742 4.36101 8.97462V8.97462C3.56017 8.78677 2.93487 8.16147 2.74702 7.36063V7.36063C2.58422 6.6666 2.58422 5.94432 2.74702 5.25029V5.25029Z" stroke="#6E6E6E" stroke-width="2"/>
<path d="M2.74702 14.4173C2.93487 13.6164 3.56017 12.9911 4.36101 12.8033V12.8033C5.05504 12.6405 5.77732 12.6405 6.47135 12.8033V12.8033C7.27219 12.9911 7.89749 13.6164 8.08534 14.4173V14.4173C8.24813 15.1113 8.24813 15.8336 8.08534 16.5276V16.5276C7.89749 17.3285 7.27219 17.9538 6.47135 18.1416V18.1416C5.77732 18.3044 5.05504 18.3044 4.36101 18.1416V18.1416C3.56017 17.9538 2.93487 17.3285 2.74702 16.5276V16.5276C2.58422 15.8336 2.58422 15.1113 2.74702 14.4173V14.4173Z" stroke="#6E6E6E" stroke-width="2"/>
<path d="M11.9135 5.25029C12.1014 4.44945 12.7267 3.82415 13.5275 3.6363V3.6363C14.2215 3.47351 14.9438 3.47351 15.6379 3.6363V3.6363C16.4387 3.82415 17.064 4.44946 17.2518 5.25029V5.25029C17.4146 5.94432 17.4146 6.6666 17.2518 7.36063V7.36063C17.064 8.16147 16.4387 8.78677 15.6378 8.97462V8.97462C14.9438 9.13742 14.2215 9.13742 13.5275 8.97462V8.97462C12.7267 8.78677 12.1014 8.16147 11.9135 7.36063V7.36063C11.7507 6.6666 11.7507 5.94432 11.9135 5.25029V5.25029Z" stroke="#6E6E6E" stroke-width="2"/>
<path d="M11.9135 14.4173C12.1014 13.6164 12.7267 12.9911 13.5275 12.8033V12.8033C14.2215 12.6405 14.9438 12.6405 15.6379 12.8033V12.8033C16.4387 12.9911 17.064 13.6164 17.2518 14.4173V14.4173C17.4146 15.1113 17.4146 15.8336 17.2518 16.5276V16.5276C17.064 17.3285 16.4387 17.9538 15.6378 18.1416V18.1416C14.9438 18.3044 14.2215 18.3044 13.5275 18.1416V18.1416C12.7267 17.9538 12.1014 17.3285 11.9135 16.5276V16.5276C11.7507 15.8336 11.7507 15.1113 11.9135 14.4173V14.4173Z" stroke="#6E6E6E" stroke-width="2"/>
</svg>
