<svg width="13" height="13" viewBox="0 0 13 13" fill="none" xmlns="http://www.w3.org/2000/svg">
<path d="M6.5143 13.0038H6.4857C2.90952 13.0038 0 10.0934 0 6.51621V6.48761C0 2.91038 2.90952 -7.62939e-06 6.4857 -7.62939e-06H6.5143C10.0905 -7.62939e-06 13 2.91038 13 6.48761V6.51621C13 10.0934 10.0905 13.0038 6.5143 13.0038ZM6.4857 0.440158C3.15198 0.440158 0.440036 3.15291 0.440036 6.48761V6.51621C0.440036 9.85091 3.15198 12.5637 6.4857 12.5637H6.5143C9.84801 12.5637 12.56 9.85091 12.56 6.51621V6.48761C12.56 3.15291 9.84801 0.440158 6.5143 0.440158H6.4857Z" fill="#3A3A3A"/>
<path d="M10.3918 6.34454C10.2875 5.87137 9.85539 5.56457 9.42679 5.6592C9.2807 5.69133 9.15484 5.7666 9.0554 5.8696C8.47851 5.45056 7.69084 5.1737 6.81121 5.12132L7.23233 3.3677L8.48159 3.66657C8.50227 4.00814 8.78521 4.27884 9.13196 4.27884C9.47871 4.27884 9.7841 3.98657 9.7841 3.62652C9.7841 3.26646 9.49191 2.97419 9.13196 2.97419C8.87102 2.97419 8.64617 3.12781 8.54232 3.34965L7.187 3.02525C7.08051 2.99972 6.97359 3.0653 6.94763 3.17182L6.48162 5.11252C5.50034 5.1178 4.61499 5.4017 3.97958 5.8564C3.94833 5.82734 3.91489 5.80049 3.87837 5.77672C3.5083 5.54035 2.99698 5.67989 2.73647 6.08792C2.47597 6.4964 2.56442 7.01888 2.93449 7.25524C2.95649 7.26933 2.97894 7.28165 3.00182 7.29309C2.98686 7.38421 2.97893 7.47708 2.97893 7.57084C2.97893 8.92875 4.55911 10.0296 6.50847 10.0296C8.45783 10.0296 10.038 8.92875 10.038 7.57084C10.038 7.47576 10.0296 7.38201 10.0142 7.29002C10.3148 7.11527 10.4785 6.73453 10.3927 6.34454H10.3918ZM4.6986 7.00127C4.6986 6.69183 4.94942 6.44094 5.25877 6.44094C5.56811 6.44094 5.81894 6.69183 5.81894 7.00127C5.81894 7.3107 5.56811 7.5616 5.25877 7.5616C4.94942 7.5616 4.6986 7.3107 4.6986 7.00127ZM7.80966 8.77029C7.63761 8.92655 7.16237 9.29101 6.46667 9.29761C6.46051 9.29761 6.4539 9.29761 6.44774 9.29761C5.7428 9.29761 5.2614 8.92963 5.08583 8.77029C5.0295 8.71923 5.02555 8.63208 5.07659 8.57618C5.12763 8.51984 5.21476 8.51588 5.27065 8.56694C5.42334 8.70603 5.84533 9.02867 6.46403 9.02295C7.06556 9.01723 7.4761 8.70251 7.62484 8.56738C7.68116 8.51632 7.76786 8.52028 7.8189 8.57662C7.86994 8.63297 7.86599 8.71967 7.80966 8.77073V8.77029ZM7.74189 7.5616C7.43255 7.5616 7.18173 7.3107 7.18173 7.00127C7.18173 6.69183 7.43255 6.44094 7.74189 6.44094C8.05124 6.44094 8.30206 6.69183 8.30206 7.00127C8.30206 7.3107 8.05124 7.5616 7.74189 7.5616Z" fill="#3A3A3A"/>
</svg>
