<svg width="24" height="25" viewBox="0 0 24 25" fill="none" xmlns="http://www.w3.org/2000/svg">
<path d="M18.0698 9.01001L9.50978 4.73001C3.75978 1.85001 1.39978 4.21001 4.27978 9.96001L5.14978 11.7C5.39978 12.21 5.39978 12.8 5.14978 13.31L4.27978 15.04C1.39978 20.79 3.74978 23.15 9.50978 20.27L18.0698 15.99C21.9098 14.07 21.9098 10.93 18.0698 9.01001ZM14.8398 13.25H9.43977C9.02978 13.25 8.68977 12.91 8.68977 12.5C8.68977 12.09 9.02978 11.75 9.43977 11.75H14.8398C15.2498 11.75 15.5898 12.09 15.5898 12.5C15.5898 12.91 15.2498 13.25 14.8398 13.25Z" fill="#31064F"/>
</svg>
