<svg width="13" height="14" viewBox="0 0 13 14" fill="none" xmlns="http://www.w3.org/2000/svg">
<path d="M6.5143 13.9923H6.4857C2.90952 13.9923 0 11.082 0 7.50473V7.47611C0 3.89888 2.90952 0.98851 6.4857 0.98851H6.5143C10.0905 0.98851 13 3.89888 13 7.47611V7.50473C13 11.082 10.0905 13.9923 6.5143 13.9923ZM6.4857 1.42868C3.15198 1.42868 0.440036 4.14141 0.440036 7.47611V7.50473C0.440036 10.8394 3.15198 13.5522 6.4857 13.5522H6.5143C9.84802 13.5522 12.56 10.8394 12.56 7.50473V7.47611C12.56 4.14141 9.84802 1.42868 6.5143 1.42868H6.4857Z" fill="#3A3A3A"/>
<path d="M9.53637 5.75375V6.94C9.32911 6.91975 9.05981 6.87265 8.7619 6.76349C8.37291 6.62088 8.08337 6.42589 7.89371 6.27491V8.6725L7.88887 8.66501C7.89195 8.71254 7.89371 8.76096 7.89371 8.80982C7.89371 10.0005 6.92519 10.9697 5.73445 10.9697C4.54372 10.9697 3.5752 10.0005 3.5752 8.80982C3.5752 7.61917 4.54372 6.6495 5.73445 6.6495C5.85106 6.6495 5.96548 6.65873 6.07724 6.67678V7.84586C5.96988 7.80757 5.85458 7.78688 5.73445 7.78688C5.17077 7.78688 4.71181 8.24553 4.71181 8.80982C4.71181 9.37412 5.17077 9.83277 5.73445 9.83277C6.29814 9.83277 6.7571 9.37368 6.7571 8.80982C6.7571 8.7887 6.75666 8.76757 6.75534 8.74644V4.08728H7.94036C7.94476 4.18764 7.94872 4.28888 7.95312 4.38924C7.96104 4.58687 8.03144 4.77659 8.15421 4.93197C8.29811 5.11464 8.51064 5.32679 8.80899 5.49625C9.08841 5.65427 9.35067 5.7225 9.53637 5.75463V5.75375Z" fill="#3A3A3A"/>
</svg>
