<svg width="41" height="35" viewBox="0 0 41 35" fill="none" xmlns="http://www.w3.org/2000/svg">
<path d="M9.41113 3.79254C13.2881 -0.900234 20.6698 -0.445044 23.9258 4.66266C24.9009 4.10837 25.9989 3.81891 27.1387 3.81891C30.8 3.81899 33.7205 6.83366 33.6064 10.4185C37.3237 10.7492 40.2498 13.8466 40.25 17.6148C40.25 21.6036 36.9719 24.8443 32.9473 24.8443H30.458C30.4367 24.8443 30.4112 24.8425 30.3848 24.8384C30.3625 24.835 30.3164 24.8261 30.2695 24.7964C30.2122 24.7601 30.1518 24.6901 30.1465 24.5884C30.1423 24.508 30.1762 24.4497 30.1904 24.4273C30.2195 24.3819 30.2607 24.3469 30.2764 24.3336C30.2975 24.3155 30.3239 24.2948 30.3438 24.2789C30.3891 24.2426 30.4244 24.2115 30.4492 24.1832C30.4244 24.1549 30.3889 24.1247 30.3438 24.0884C30.3238 24.0725 30.2976 24.0509 30.2764 24.0328C30.2607 24.0194 30.2195 23.9855 30.1904 23.94C30.1763 23.918 30.1425 23.8595 30.1465 23.7789C30.1517 23.6771 30.2121 23.6062 30.2695 23.5699C30.3164 23.5403 30.3625 23.5314 30.3848 23.5279C30.4112 23.5238 30.4368 23.523 30.458 23.523H32.9473C36.243 23.523 38.9206 20.8701 38.9209 17.6158C38.9209 14.3612 36.2431 11.7076 32.9473 11.7076H32.8877C32.696 11.7076 32.5124 11.6256 32.3857 11.481C32.2592 11.3365 32.2016 11.1436 32.2295 10.9527C32.2648 10.7087 32.2822 10.4638 32.2822 10.2261C32.2822 7.42432 29.977 5.13923 27.1387 5.13922C26.0342 5.13922 24.9823 5.48078 24.0947 6.12653C23.7686 6.36362 23.3046 6.25979 23.1143 5.90192C20.563 1.09525 13.8957 0.448178 10.4395 4.63141C8.98433 6.39288 8.41303 8.68292 8.87109 10.9156L8.88184 10.9927C8.91481 11.3748 8.60996 11.7075 8.21973 11.7076H8.05371C4.75781 11.7076 2.08008 14.3612 2.08008 17.6158C2.08017 20.8703 4.75787 23.523 8.05371 23.523H10.543C10.5843 23.523 10.6372 23.527 10.6904 23.5455C10.7488 23.5659 10.8191 23.6092 10.8613 23.691C10.9002 23.7664 10.8969 23.8388 10.8906 23.8804C10.8843 23.9223 10.8704 23.9594 10.8613 23.983C10.8519 24.0073 10.841 24.0347 10.833 24.0533C10.8239 24.0744 10.8159 24.0924 10.8096 24.1099C10.7967 24.1454 10.793 24.1686 10.793 24.1841C10.793 24.1996 10.7968 24.2223 10.8096 24.2574C10.8159 24.2749 10.824 24.293 10.833 24.314C10.841 24.3326 10.8519 24.36 10.8613 24.3843C10.8704 24.4079 10.8843 24.445 10.8906 24.4869C10.8969 24.5285 10.9002 24.6009 10.8613 24.6763C10.8191 24.7581 10.7488 24.8014 10.6904 24.8218C10.6372 24.8404 10.5843 24.8443 10.543 24.8443H8.05371C4.02914 24.8443 0.750109 21.6042 0.75 17.6158C0.75 13.8291 3.70517 10.718 7.44824 10.4127C7.17315 8.03735 7.86775 5.66093 9.41113 3.79254Z" fill="#31064F" stroke="#31064F" stroke-width="0.5"/>
<path d="M20.4443 13.5385C26.2451 13.5385 30.9668 18.2083 30.9668 23.9515C30.9668 29.6947 26.2451 34.3646 20.4443 34.3646C14.6438 34.3644 9.92188 29.6947 9.92188 23.9515C9.9219 18.2085 14.6438 13.5387 20.4443 13.5385ZM20.4443 14.6605C15.2641 14.6608 11.0528 18.8301 11.0527 23.9515C11.0527 29.0731 15.2642 33.2433 20.4443 33.2435C25.6247 33.2435 29.8369 29.0732 29.8369 23.9515C29.8369 18.8298 25.6247 14.6605 20.4443 14.6605Z" fill="#31064F" stroke="#31064F" stroke-width="0.3"/>
<path d="M20.6328 19.818C20.8819 19.818 21.0869 20.0189 21.0869 20.2692V28.0827C21.0869 28.3332 20.8818 28.5338 20.6328 28.5338C20.3838 28.5338 20.1787 28.3329 20.1787 28.0827V20.2692C20.1787 20.0189 20.3838 19.818 20.6328 19.818Z" fill="#31064F" stroke="#31064F" stroke-width="0.3"/>
<path d="M20.3838 19.893C20.5596 19.778 20.7982 19.7975 20.9531 19.9506L23.3838 22.3549C23.5616 22.5311 23.5617 22.8175 23.3838 22.9936L23.3828 22.9926C23.2941 23.0806 23.1783 23.1244 23.0635 23.1245C22.9483 23.1245 22.8317 23.0811 22.7432 22.9936L20.6328 20.9047L18.5234 22.9936L18.5225 22.9926C18.3455 23.1677 18.0598 23.1685 17.8828 22.9936C17.7048 22.8175 17.7049 22.5311 17.8828 22.3549L20.3125 19.9506L20.3838 19.893Z" fill="#31064F" stroke="#31064F" stroke-width="0.3"/>
</svg>
