<svg width="20" height="22" viewBox="0 0 20 22" fill="none" xmlns="http://www.w3.org/2000/svg">
<g clip-path="url(#clip0_744_597)">
<path d="M6.17773 18.7055V7.18091" stroke="#6E6E6E" stroke-width="1.71446" stroke-linecap="round" stroke-linejoin="round"/>
<path d="M13.8232 18.7358V7.18091" stroke="#6E6E6E" stroke-width="1.71446" stroke-linecap="round" stroke-linejoin="round"/>
<path d="M2.226 16.5176C2.4044 17.7402 3.422 18.6909 4.66126 18.7994C8.25863 19.1145 11.7415 19.1145 15.3389 18.7994C16.5782 18.6909 17.5957 17.7402 17.7741 16.5176C18.123 14.127 18.123 11.8611 17.7741 9.47042C17.5957 8.24787 16.5782 7.29724 15.3389 7.1887C11.7415 6.87362 8.25863 6.87362 4.66126 7.1887C3.422 7.29724 2.4044 8.24787 2.226 9.47042C1.87714 11.8611 1.87714 14.127 2.226 16.5176Z" stroke="#6E6E6E" stroke-width="1.71446" stroke-linecap="round" stroke-linejoin="round"/>
<path d="M6.94681 7.02718C6.93668 6.902 6.94712 6.1509 6.94712 6.01771C6.94712 4.06353 8.04634 2.96429 10.0005 2.96429C11.9547 2.96429 13.0539 4.06353 13.0539 6.01771C13.0539 6.1509 13.0333 6.902 13.0232 7.02718" stroke="#6E6E6E" stroke-width="1.71446" stroke-linecap="round" stroke-linejoin="round"/>
</g>
<defs>
<clipPath id="clip0_744_597">
<rect width="18" height="18" fill="white" transform="translate(1 2)"/>
</clipPath>
</defs>
</svg>
